<?xml version="1.0" encoding="UTF-8" standalone="no"?>
<!-- Created with Inkscape (http://www.inkscape.org/) -->

<svg
   width="134.01736mm"
   height="134.12871mm"
   viewBox="0 0 134.01736 134.12871"
   version="1.1"
   id="svg1"
   xmlns="http://www.w3.org/2000/svg"
   xmlns:svg="http://www.w3.org/2000/svg">
  <defs
     id="defs1" />
  <g
     id="g32"
     transform="translate(-395.9445,-144.27061)"
     style="display:inline">
    <path
       style="color:#000000;fill:#fb0725;fill-opacity:1;stroke-width:1.02335;-inkscape-stroke:none"
       d="m 437.71139,255.53748 c 26.11684,36.10837 69.59362,-13.42109 47.94295,-29.24064 18.24889,16.49479 -24.44977,57.21365 -44.48321,26.03266 -20.98095,-32.65577 31.26658,-62.43093 27.22926,-89.30444 -0.88674,29.36228 -55.74588,57.86952 -30.689,92.51242 z"
       id="path30" />
    <path
       style="color:#000000;fill:#ff7a39;fill-opacity:1;stroke-width:1.02335;-inkscape-stroke:none"
       d="m 467.57435,150.72527 c 16.88181,40.1894 -44.93906,67.09662 -21.28041,98.99812 19.79606,26.69315 53.12668,-12.52189 38.12183,-23.18839 11.61588,10.15825 -18.4656,43.8852 -34.82756,20.29928 -19.09868,-27.53091 38.42859,-60.02989 17.98614,-96.10901 z"
       id="path31" />
    <path
       style="color:#000000;display:inline;fill:#faaf40;fill-opacity:1;stroke-width:1.02335;-inkscape-stroke:none"
       d="m 470.9449,154.56572 c 15.8171,31.01686 -34.43609,68.48001 -17.08747,90.48003 13.87461,17.59459 38.97473,-10.16036 29.76297,-17.76111 6.50874,9.70148 -17.37322,28.08552 -26.50601,15.35927 -14.00331,-19.51318 32.18399,-60.14981 13.83051,-88.07819 z"
       id="path32" />
  </g>
</svg>
