<?xml version="1.0" encoding="UTF-8" standalone="no"?>
<!-- Created with Inkscape (http://www.inkscape.org/) -->

<svg
   width="134.01736mm"
   height="134.12871mm"
   viewBox="0 0 134.01736 134.12871"
   version="1.1"
   id="svg1"
   xmlns="http://www.w3.org/2000/svg"
   xmlns:svg="http://www.w3.org/2000/svg">
  <defs
     id="defs1" />
  <g
     id="g66"
     transform="translate(-395.9445,-144.27061)"
     style="display:inline;opacity:1">
    <path
       style="color:#000000;display:inline;opacity:1;fill:#e41b1b;fill-opacity:1;stroke-width:1.73467;-inkscape-stroke:none"
       d="m 460.36352,158.87114 c 26.99967,37.956 -46.5692,49.67208 -22.9492,90.99034 22.93167,40.11418 78.04805,-10.54432 39.99527,-26.50211 32.10204,15.29912 -14.78389,58.67146 -34.94294,23.66113 -20.80259,-36.12797 48.02821,-53.17188 17.89687,-88.14936 z"
       id="path64" />
    <path
       style="color:#000000;display:inline;fill:#ff5333;fill-opacity:1;stroke-width:1.40269;-inkscape-stroke:none"
       d="m 456.27142,152.94034 c 46.11753,41.47695 -33.16554,56.55399 -9.15388,93.57136 17.90275,27.59963 58.60887,-9.76601 28.73684,-22.93514 24.33363,13.07502 -9.46136,42.4989 -24.85634,20.39244 -21.86574,-31.39791 54.35817,-51.65592 5.27338,-91.02866 z"
       id="path65" />
    <path
       style="color:#000000;display:inline;opacity:1;fill:#ef7133;fill-opacity:1;stroke-width:1.05885;-inkscape-stroke:none"
       d="m 460.97363,155.482 c 43.53923,37.63867 -24.15436,59.03015 -6.68185,85.56568 12.08459,18.35288 42.5608,-5.59363 20.25008,-17.33097 16.62956,11.6946 -5.9707,29.1152 -16.83008,14.90613 -13.06942,-20.85994 48.79208,-46.51054 3.26185,-83.14084 z"
       id="path66" />
  </g>
</svg>
